<svg width="34" height="34" viewBox="0 0 34 34" fill="none" xmlns="http://www.w3.org/2000/svg">
<path d="M26.1198 9.38509C26.1198 9.38509 23.481 7.32012 20.3646 7.08301L20.0837 7.64472C22.9015 8.33419 24.1941 9.32236 25.5443 10.5361C23.2163 9.34768 20.9177 8.23405 16.9115 8.23405C12.9053 8.23405 10.6066 9.34768 8.27865 10.5361C9.62882 9.32236 11.1666 8.22542 13.7392 7.64472L13.4583 7.08301C10.1888 7.39206 7.70313 9.38509 7.70313 9.38509C7.70313 9.38509 4.75588 13.6583 4.25 22.0466C7.22084 25.4726 11.7318 25.4997 11.7318 25.4997L12.6751 24.2422C11.074 23.6856 9.26566 22.6917 7.70313 20.8955C9.56666 22.3055 12.3792 23.7731 16.9115 23.7731C21.4437 23.7731 24.2563 22.3055 26.1198 20.8955C24.5573 22.6917 22.749 23.6856 21.1479 24.2422L22.0911 25.4997C22.0911 25.4997 26.6021 25.4726 29.5729 22.0466C29.067 13.6583 26.1198 9.38509 26.1198 9.38509ZM13.1706 19.7445C12.0581 19.7445 11.1563 18.7137 11.1563 17.4424C11.1563 16.1711 12.0581 15.1403 13.1706 15.1403C14.2831 15.1403 15.1849 16.1711 15.1849 17.4424C15.1849 18.7137 14.2831 19.7445 13.1706 19.7445ZM20.6523 19.7445C19.5399 19.7445 18.638 18.7137 18.638 17.4424C18.638 16.1711 19.5399 15.1403 20.6523 15.1403C21.7648 15.1403 22.6667 16.1711 22.6667 17.4424C22.6667 18.7137 21.7648 19.7445 20.6523 19.7445Z" fill="white"/>
</svg>
