<svg width="34" height="34" viewBox="0 0 34 34" fill="none" xmlns="http://www.w3.org/2000/svg">
<path d="M27.0865 5.66699H6.91317C6.58253 5.66699 6.26544 5.79834 6.03164 6.03213C5.79785 6.26593 5.6665 6.58302 5.6665 6.91366V27.087C5.6665 27.2507 5.69875 27.4128 5.7614 27.5641C5.82405 27.7153 5.91588 27.8528 6.03164 27.9685C6.14741 28.0843 6.28484 28.1761 6.43609 28.2388C6.58734 28.3014 6.74946 28.3337 6.91317 28.3337H17.7705V19.5503H14.8238V16.1503H17.7705V13.6003C17.7095 13.0016 17.7801 12.3969 17.9776 11.8284C18.175 11.2599 18.4944 10.7415 18.9134 10.3096C19.3324 9.87764 19.8408 9.54258 20.403 9.32793C20.9652 9.11327 21.5676 9.02421 22.1678 9.06699C23.0499 9.06156 23.9316 9.10697 24.8085 9.20299V12.263H23.0065C21.5785 12.263 21.3065 12.943 21.3065 13.929V16.1163H24.7065L24.2645 19.5163H21.3065V28.3337H27.0865C27.2502 28.3337 27.4123 28.3014 27.5636 28.2388C27.7148 28.1761 27.8523 28.0843 27.968 27.9685C28.0838 27.8528 28.1756 27.7153 28.2383 27.5641C28.3009 27.4128 28.3332 27.2507 28.3332 27.087V6.91366C28.3332 6.74994 28.3009 6.58783 28.2383 6.43658C28.1756 6.28533 28.0838 6.1479 27.968 6.03213C27.8523 5.91637 27.7148 5.82454 27.5636 5.76189C27.4123 5.69924 27.2502 5.66699 27.0865 5.66699V5.66699Z" fill="white"/>
</svg>
