<svg width="34" height="34" viewBox="0 0 34 34" fill="none" xmlns="http://www.w3.org/2000/svg">
<path d="M11.4419 9.91699C15.4139 9.91699 18.6335 13.1591 18.6335 17.1582C18.6335 21.1573 15.4136 24.3992 11.4419 24.3992C7.47015 24.3992 4.25 21.1573 4.25 17.1582C4.25 13.1591 7.46991 9.91699 11.4419 9.91699ZM22.9268 10.3412C24.9128 10.3412 26.5228 13.393 26.5228 17.1582H26.523C26.523 20.9225 24.9131 23.9753 22.9271 23.9753C20.9411 23.9753 19.3311 20.9225 19.3311 17.1582C19.3311 13.3939 20.9408 10.3412 22.9268 10.3412ZM28.4853 11.0512C29.1836 11.0512 29.75 13.7854 29.75 17.1582C29.75 20.5301 29.1839 23.2653 28.4853 23.2653C27.7867 23.2653 27.2208 20.5309 27.2208 17.1582C27.2208 13.7856 27.787 11.0512 28.4853 11.0512Z" fill="white"/>
</svg>
