<svg width="34" height="34" viewBox="0 0 34 34" fill="none" xmlns="http://www.w3.org/2000/svg">
<path d="M13.019 26.0771C14.8137 26.0884 16.5928 25.7433 18.2531 25.0617C19.9134 24.3801 21.4218 23.3756 22.6909 22.1065C23.9599 20.8374 24.9644 19.329 25.646 17.6687C26.3276 16.0084 26.6728 14.2294 26.6615 12.4346C26.6615 12.2221 26.6615 12.0203 26.6615 11.8078C27.5918 11.1262 28.3971 10.2886 29.0415 9.33214C28.1655 9.71528 27.2386 9.96938 26.2896 10.0865C27.2957 9.48704 28.0506 8.54342 28.4146 7.43027C27.477 7.9928 26.4488 8.38826 25.3759 8.59902C24.6533 7.8291 23.6971 7.31877 22.6553 7.14699C21.6135 6.97522 20.5441 7.15157 19.6126 7.64878C18.6811 8.14598 17.9394 8.93631 17.5023 9.89748C17.0652 10.8586 16.9571 11.9371 17.1946 12.9659C15.2885 12.8723 13.4235 12.3784 11.721 11.5161C10.0185 10.6539 8.5167 9.44273 7.31338 7.96152C6.70661 9.01464 6.52269 10.259 6.79887 11.4426C7.07505 12.6262 7.79069 13.6607 8.80088 14.3365C8.05565 14.3078 7.32767 14.1039 6.67588 13.7415V13.7946C6.66926 14.8952 7.04002 15.9648 7.72638 16.8252C8.41273 17.6855 9.37322 18.2847 10.4478 18.5228C9.75462 18.7092 9.02856 18.7382 8.32275 18.6078C8.63384 19.5464 9.22767 20.3657 10.0228 20.9535C10.8179 21.5413 11.7754 21.8688 12.764 21.8909C11.0738 23.2515 8.9731 24.0004 6.80338 24.0159C6.42295 24.0049 6.04342 23.973 5.6665 23.9203C7.86264 25.3195 10.415 26.0572 13.019 26.0453" fill="white"/>
</svg>
