<?xml version="1.0" standalone="no"?>
<!DOCTYPE svg PUBLIC "-//W3C//DTD SVG 20010904//EN"
 "http://www.w3.org/TR/2001/REC-SVG-20010904/DTD/svg10.dtd">
<svg version="1.0" xmlns="http://www.w3.org/2000/svg"
 width="512.000000pt" height="512.000000pt" viewBox="0 0 512.000000 512.000000"
 preserveAspectRatio="xMidYMid meet">
<metadata>
Created by potrace 1.14, written by Peter Selinger 2001-2017
</metadata>
<g transform="translate(0.000000,512.000000) scale(0.100000,-0.100000)"
fill="#000000" stroke="none">
<path d="M1418 3467 c-18 -14 -173 -305 -459 -862 -237 -462 -442 -860 -455
-884 -13 -24 -24 -51 -24 -60 0 -39 14 -41 325 -41 l301 0 31 28 c26 23 273
491 630 1194 13 27 21 13 314 -573 165 -330 311 -611 324 -625 l24 -24 254 0
253 0 32 33 c18 18 47 61 65 95 l33 62 30 -62 c16 -34 42 -77 58 -95 l28 -33
254 0 253 0 33 33 c22 22 134 234 347 657 173 344 372 739 443 877 80 156 128
261 126 275 l-3 23 -292 3 -291 2 -27 -27 c-15 -16 -152 -277 -305 -582 l-277
-554 -30 59 -30 59 254 502 c182 360 253 509 248 523 -6 19 -15 20 -295 20
-285 0 -289 0 -314 -22 -14 -13 -67 -104 -117 -202 l-92 -179 -94 186 c-57
114 -102 192 -116 202 -21 13 -66 15 -313 13 -280 -3 -289 -4 -292 -23 -1 -11
110 -245 246 -521 l249 -500 -29 -57 -28 -57 -280 559 c-153 308 -289 569
-301 580 -22 20 -32 21 -343 21 -318 0 -321 0 -348 -23z"/>
<path d="M3000 1640 c0 -5 5 -10 10 -10 6 0 10 5 10 10 0 6 -4 10 -10 10 -5 0
-10 -4 -10 -10z"/>
<path d="M3750 1640 c0 -5 5 -10 10 -10 6 0 10 5 10 10 0 6 -4 10 -10 10 -5 0
-10 -4 -10 -10z"/>
</g>
</svg>
